{
    "asset" : {
        "generator" : "Khronos glTF Blender I/O v0.9.36",
        "version" : "2.0"
    },
    "scene" : 0,
    "scenes" : [
        {
            "name" : "Scene",
            "nodes" : [
                0,
                1,
                3,
                4
            ]
        }
    ],
    "nodes" : [
        {
            "name" : "Light",
            "rotation" : [
                0.16907575726509094,
                0.7558803558349609,
                -0.27217137813568115,
                0.570947527885437
            ],
            "translation" : [
                0.8407427072525024,
                0.7181750535964966,
                0.2844875156879425
            ]
        },
        {
            "name" : "Camera",
            "rotation" : [
                0.4934852719306946,
                0.013448894955217838,
                -0.007631822023540735,
                0.869616687297821
            ],
            "translation" : [
                0.03888704627752304,
                0.9990235567092896,
                1.3735216856002808
            ]
        },
        {
            "mesh" : 0,
            "name" : "Icing"
        },
        {
            "children" : [
                2
            ],
            "mesh" : 1,
            "name" : "Donut",
            "translation" : [
                -0.007340777665376663,
                0.023997243493795395,
                0.0037835417315363884
            ]
        },
        {
            "mesh" : 2,
            "name" : "Plane",
            "translation" : [
                0.0005684494972229004,
                -0.00026285648345947266,
                -0.00045089423656463623
            ]
        }
    ],
    "materials" : [
        {
            "doubleSided" : true,
            "name" : "Material",
            "pbrMetallicRoughness" : {
                "baseColorFactor" : [
                    0.7858083844184875,
                    0.1304762363433838,
                    0.5010467767715454,
                    1
                ],
                "metallicFactor" : 0,
                "roughnessFactor" : 0.34200000762939453
            }
        },
        {
            "doubleSided" : true,
            "name" : "Material.001",
            "pbrMetallicRoughness" : {
                "baseColorFactor" : [
                    0.6519542336463928,
                    0.44296762347221375,
                    0.09208676964044571,
                    1
                ],
                "metallicFactor" : 0,
                "roughnessFactor" : 0.5
            }
        },
        {
            "doubleSided" : true,
            "name" : "Material.002",
            "pbrMetallicRoughness" : {
                "baseColorFactor" : [
                    0.8000000715255737,
                    0.3775089979171753,
                    0.6830055117607117,
                    1
                ],
                "metallicFactor" : 0,
                "roughnessFactor" : 0.5
            }
        }
    ],
    "meshes" : [
        {
            "name" : "Torus.001",
            "primitives" : [
                {
                    "attributes" : {
                        "POSITION" : 0,
                        "NORMAL" : 1,
                        "TEXCOORD_0" : 2
                    },
                    "indices" : 3,
                    "material" : 0
                }
            ]
        },
        {
            "name" : "Torus",
            "primitives" : [
                {
                    "attributes" : {
                        "POSITION" : 4,
                        "NORMAL" : 5,
                        "TEXCOORD_0" : 6
                    },
                    "indices" : 7,
                    "material" : 1
                }
            ]
        },
        {
            "name" : "Plane",
            "primitives" : [
                {
                    "attributes" : {
                        "POSITION" : 8,
                        "NORMAL" : 9,
                        "TEXCOORD_0" : 10
                    },
                    "indices" : 11,
                    "material" : 2
                }
            ]
        }
    ],
    "accessors" : [
        {
            "bufferView" : 0,
            "componentType" : 5126,
            "count" : 21266,
            "max" : [
                0.06783013790845871,
                0.036505263298749924,
                0.06872031092643738
            ],
            "min" : [
                -0.07778315246105194,
                0.0034737989772111177,
                -0.07438204437494278
            ],
            "type" : "VEC3"
        },
        {
            "bufferView" : 1,
            "componentType" : 5126,
            "count" : 21266,
            "type" : "VEC3"
        },
        {
            "bufferView" : 2,
            "componentType" : 5126,
            "count" : 21266,
            "type" : "VEC2"
        },
        {
            "bufferView" : 3,
            "componentType" : 5123,
            "count" : 115200,
            "type" : "SCALAR"
        },
        {
            "bufferView" : 4,
            "componentType" : 5126,
            "count" : 5537,
            "max" : [
                0.06718017905950546,
                0.030340585857629776,
                0.06734023243188858
            ],
            "min" : [
                -0.08050432056188583,
                -0.020424935966730118,
                -0.07170215994119644
            ],
            "type" : "VEC3"
        },
        {
            "bufferView" : 5,
            "componentType" : 5126,
            "count" : 5537,
            "type" : "VEC3"
        },
        {
            "bufferView" : 6,
            "componentType" : 5126,
            "count" : 5537,
            "type" : "VEC2"
        },
        {
            "bufferView" : 7,
            "componentType" : 5123,
            "count" : 32256,
            "type" : "SCALAR"
        },
        {
            "bufferView" : 8,
            "componentType" : 5126,
            "count" : 4,
            "max" : [
                1,
                0,
                1
            ],
            "min" : [
                -1,
                0,
                -1
            ],
            "type" : "VEC3"
        },
        {
            "bufferView" : 9,
            "componentType" : 5126,
            "count" : 4,
            "type" : "VEC3"
        },
        {
            "bufferView" : 10,
            "componentType" : 5126,
            "count" : 4,
            "type" : "VEC2"
        },
        {
            "bufferView" : 11,
            "componentType" : 5123,
            "count" : 6,
            "type" : "SCALAR"
        }
    ],
    "bufferViews" : [
        {
            "buffer" : 0,
            "byteLength" : 255192,
            "byteOffset" : 0
        },
        {
            "buffer" : 0,
            "byteLength" : 255192,
            "byteOffset" : 255192
        },
        {
            "buffer" : 0,
            "byteLength" : 170128,
            "byteOffset" : 510384
        },
        {
            "buffer" : 0,
            "byteLength" : 230400,
            "byteOffset" : 680512
        },
        {
            "buffer" : 0,
            "byteLength" : 66444,
            "byteOffset" : 910912
        },
        {
            "buffer" : 0,
            "byteLength" : 66444,
            "byteOffset" : 977356
        },
        {
            "buffer" : 0,
            "byteLength" : 44296,
            "byteOffset" : 1043800
        },
        {
            "buffer" : 0,
            "byteLength" : 64512,
            "byteOffset" : 1088096
        },
        {
            "buffer" : 0,
            "byteLength" : 48,
            "byteOffset" : 1152608
        },
        {
            "buffer" : 0,
            "byteLength" : 48,
            "byteOffset" : 1152656
        },
        {
            "buffer" : 0,
            "byteLength" : 32,
            "byteOffset" : 1152704
        },
        {
            "buffer" : 0,
            "byteLength" : 12,
            "byteOffset" : 1152736
        }
    ],
    "buffers" : [
        {
            "byteLength" : 1152748,
            "uri" : "data:application/octet-stream;base64,"
        }
    ]
}
